<?xml version="1.0" encoding="utf-8"?>
<!-- Generator: Adobe Illustrator 21.0.0, SVG Export Plug-In . SVG Version: 6.00 Build 0)  -->
<svg version="1.1" id="contrast" xmlns="http://www.w3.org/2000/svg" xmlns:xlink="http://www.w3.org/1999/xlink" x="0px" y="0px"
	 viewBox="0 0 48 48" style="enable-background:new 0 0 48 48;" xml:space="preserve">
<style type="text/css">
	.contrast{fill:#d22856;}
</style>
<g>
	<path class="contrast" d="M24,5c10.5,0,19,8.5,19,19s-8.5,19-19,19S5,34.5,5,24S13.5,5,24,5 M24,1C11.3,1,1,11.3,1,24
		c0,12.7,10.3,23,23,23s23-10.3,23-23C47,11.3,36.7,1,24,1L24,1z"/>
</g>
<path class="contrast" d="M24,36c6.8,0,12.3-5.5,12.3-12.3c0-6.8-5.5-12.3-12.3-12.3"/>
</svg>
