<?xml version="1.0" encoding="utf-8"?>
<!-- Generator: Adobe Illustrator 21.0.0, SVG Export Plug-In . SVG Version: 6.00 Build 0)  -->
<svg version="1.1" id="academy" xmlns="http://www.w3.org/2000/svg" xmlns:xlink="http://www.w3.org/1999/xlink" x="0px" y="0px"
	 viewBox="0 0 28 35" style="enable-background:new 0 0 28 35;" xml:space="preserve">
<style type="text/css">
	.academy{stroke:#d22856;stroke-miterlimit:10;}
</style>
<path class="academy" d="M14.1,1L14,1L1,2.4v23.9L14,34l13-7.8V2.4L14.1,1z M25.3,25.3L14,32L2.7,25.3v-9.8L14,22.2l0,1.2l-7.7-4.6
	l0,1.2l7.7,4.7l0,1.2l-7.7-4.6l0,1.2l7.7,4.7l7.8-4.7v-1.2l0,0v-0.4v-0.5v-3l3.5-2.1V25.3z M25.3,14.1l-3.1,1.8l-1.4,0.8L14,12.7
	l0,1.2l5.8,3.5l-0.1,0l-0.1,0.1l-0.8,0.5L14,15l0,1.2l3.8,2.3l-0.9,0.6l0,0L14,17.4l0,1.2l1.9,1.1l-1.9,1.2L2.7,14.2l11.2-6.8v0
	L25.3,14.1z M25.3,12.9L13.9,6.2v0l0,0l0,0v0L2.7,12.9v-9L14,2.7l11.3,1.2V12.9z"/>
</svg>
